# xmcd
#
# Track frame offsets:
#	150
#	12031
#	19133
#	34280
#	52691
#	65507
#	79997
#	94738
#	105144
#
# Disc length: 1684
#
# Revision: 1
# Processed by: cddbd v1.5.1PL0 Copyright (c) Steve Scherf et al.
# Submitted via: dBpowerAMP V4.0
# Normalized: r0:TRMNUM
#
DISCID=5f069209
DTITLE=Corinne Rose - Corinne Rose
DYEAR=2002
DGENRE=Bluegrass
TTITLE0=Corinne Rose
TTITLE1=Gathering Storm
TTITLE2=Distant Land To Roam
TTITLE3=I'll Fly Away
TTITLE4=Gabrielle's Call
TTITLE5=Hello Stranger
TTITLE6=The One I Love is Gone
TTITLE7=Walking in My Sleep
TTITLE8=I am Weary
EXTD=
EXTT0=
EXTT1=
EXTT2=
EXTT3=
EXTT4=
EXTT5=
EXTT6=
EXTT7=
EXTT8=
PLAYORDER=
